<?xml version="1.0" encoding="UTF-8" standalone="no"?>
<!DOCTYPE svg PUBLIC "-//W3C//DTD SVG 1.1//EN"
 "http://www.w3.org/Graphics/SVG/1.1/DTD/svg11.dtd">
<!-- Generated by graphviz version 2.47.0 (20210316.0004)
 -->
<!-- Title: dbml Pages: 1 -->
<svg width="572pt" height="1965pt"
 viewBox="0.00 0.00 572.27 1965.27" xmlns="http://www.w3.org/2000/svg" xmlns:xlink="http://www.w3.org/1999/xlink">
<g id="graph0" class="graph" transform="scale(1 1) rotate(0) translate(4 1961.27)">
<title>dbml</title>
<!-- test_table -->
<g id="test_table" class="node">
<title>test_table</title>
<ellipse fill="none" stroke="black" stroke-width="0" cx="282.14" cy="-978.64" rx="282.27" ry="978.77"/>
<polygon fill="#1d71b8" stroke="transparent" points="85.14,-1608.64 85.14,-1668.64 480.14,-1668.64 480.14,-1608.64 85.14,-1608.64"/>
<polygon fill="none" stroke="#29235c" points="85.14,-1608.64 85.14,-1668.64 480.14,-1668.64 480.14,-1608.64 85.14,-1608.64"/>
<text text-anchor="start" x="151.02" y="-1629.84" font-family="Helvetica,sans-Serif" font-weight="bold" font-size="32.00" fill="#ffffff"> &#160;&#160;&#160;&#160;&#160;&#160;test_table &#160;&#160;&#160;&#160;&#160;&#160;</text>
<polygon fill="#e7e2dd" stroke="transparent" points="85.14,-1548.64 85.14,-1608.64 480.14,-1608.64 480.14,-1548.64 85.14,-1548.64"/>
<polygon fill="none" stroke="#29235c" points="85.14,-1548.64 85.14,-1608.64 480.14,-1608.64 480.14,-1548.64 85.14,-1548.64"/>
<text text-anchor="start" x="96.14" y="-1569.84" font-family="Helvetica,sans-Serif" font-weight="bold" font-size="32.00" fill="#29235c">id</text>
<text text-anchor="start" x="121.03" y="-1569.84" font-family="Helvetica,sans-Serif" font-size="32.00" fill="#29235c"> &#160;&#160;&#160;</text>
<text text-anchor="start" x="396.26" y="-1569.84" font-family="Helvetica,sans-Serif" font-style="italic" font-size="32.00" fill="#29235c">int</text>
<text text-anchor="start" x="430.04" y="-1569.84" font-family="Helvetica,sans-Serif" font-size="32.00" fill="#29235c"> </text>
<text text-anchor="start" x="438.94" y="-1569.84" font-family="Helvetica,sans-Serif" font-weight="bold" font-size="32.00" fill="#29235c">(!)</text>
<polygon fill="#e7e2dd" stroke="transparent" points="85.14,-1488.64 85.14,-1548.64 480.14,-1548.64 480.14,-1488.64 85.14,-1488.64"/>
<polygon fill="none" stroke="#29235c" points="85.14,-1488.64 85.14,-1548.64 480.14,-1548.64 480.14,-1488.64 85.14,-1488.64"/>
<text text-anchor="start" x="96.14" y="-1508.84" font-family="Helvetica,sans-Serif" font-size="32.00" fill="#29235c">column1 &#160;&#160;&#160;</text>
<text text-anchor="start" x="287.79" y="-1509.84" font-family="Helvetica,sans-Serif" font-style="italic" font-size="32.00" fill="#29235c">varchar(255)</text>
<polygon fill="#e7e2dd" stroke="transparent" points="85.14,-1428.64 85.14,-1488.64 480.14,-1488.64 480.14,-1428.64 85.14,-1428.64"/>
<polygon fill="none" stroke="#29235c" points="85.14,-1428.64 85.14,-1488.64 480.14,-1488.64 480.14,-1428.64 85.14,-1428.64"/>
<text text-anchor="start" x="96.14" y="-1448.84" font-family="Helvetica,sans-Serif" font-size="32.00" fill="#29235c">column2 &#160;&#160;&#160;</text>
<text text-anchor="start" x="287.79" y="-1449.84" font-family="Helvetica,sans-Serif" font-style="italic" font-size="32.00" fill="#29235c">varchar(255)</text>
<polygon fill="#e7e2dd" stroke="transparent" points="85.14,-1368.64 85.14,-1428.64 480.14,-1428.64 480.14,-1368.64 85.14,-1368.64"/>
<polygon fill="none" stroke="#29235c" points="85.14,-1368.64 85.14,-1428.64 480.14,-1428.64 480.14,-1368.64 85.14,-1368.64"/>
<text text-anchor="start" x="96.14" y="-1388.84" font-family="Helvetica,sans-Serif" font-size="32.00" fill="#29235c">column3 &#160;&#160;&#160;</text>
<text text-anchor="start" x="287.79" y="-1389.84" font-family="Helvetica,sans-Serif" font-style="italic" font-size="32.00" fill="#29235c">varchar(255)</text>
<polygon fill="#e7e2dd" stroke="transparent" points="85.14,-1308.64 85.14,-1368.64 480.14,-1368.64 480.14,-1308.64 85.14,-1308.64"/>
<polygon fill="none" stroke="#29235c" points="85.14,-1308.64 85.14,-1368.64 480.14,-1368.64 480.14,-1308.64 85.14,-1308.64"/>
<text text-anchor="start" x="96.14" y="-1328.84" font-family="Helvetica,sans-Serif" font-size="32.00" fill="#29235c">column4 &#160;&#160;&#160;</text>
<text text-anchor="start" x="287.79" y="-1329.84" font-family="Helvetica,sans-Serif" font-style="italic" font-size="32.00" fill="#29235c">varchar(255)</text>
<polygon fill="#e7e2dd" stroke="transparent" points="85.14,-1248.64 85.14,-1308.64 480.14,-1308.64 480.14,-1248.64 85.14,-1248.64"/>
<polygon fill="none" stroke="#29235c" points="85.14,-1248.64 85.14,-1308.64 480.14,-1308.64 480.14,-1248.64 85.14,-1248.64"/>
<text text-anchor="start" x="96.14" y="-1268.84" font-family="Helvetica,sans-Serif" font-size="32.00" fill="#29235c">column5 &#160;&#160;&#160;</text>
<text text-anchor="start" x="287.79" y="-1269.84" font-family="Helvetica,sans-Serif" font-style="italic" font-size="32.00" fill="#29235c">varchar(255)</text>
<polygon fill="#e7e2dd" stroke="transparent" points="85.14,-1188.64 85.14,-1248.64 480.14,-1248.64 480.14,-1188.64 85.14,-1188.64"/>
<polygon fill="none" stroke="#29235c" points="85.14,-1188.64 85.14,-1248.64 480.14,-1248.64 480.14,-1188.64 85.14,-1188.64"/>
<text text-anchor="start" x="96.14" y="-1208.84" font-family="Helvetica,sans-Serif" font-size="32.00" fill="#29235c">column6 &#160;&#160;&#160;</text>
<text text-anchor="start" x="287.79" y="-1209.84" font-family="Helvetica,sans-Serif" font-style="italic" font-size="32.00" fill="#29235c">varchar(255)</text>
<polygon fill="#e7e2dd" stroke="transparent" points="85.14,-1128.64 85.14,-1188.64 480.14,-1188.64 480.14,-1128.64 85.14,-1128.64"/>
<polygon fill="none" stroke="#29235c" points="85.14,-1128.64 85.14,-1188.64 480.14,-1188.64 480.14,-1128.64 85.14,-1128.64"/>
<text text-anchor="start" x="96.14" y="-1148.84" font-family="Helvetica,sans-Serif" font-size="32.00" fill="#29235c">column7 &#160;&#160;&#160;</text>
<text text-anchor="start" x="287.79" y="-1149.84" font-family="Helvetica,sans-Serif" font-style="italic" font-size="32.00" fill="#29235c">varchar(255)</text>
<polygon fill="#e7e2dd" stroke="transparent" points="85.14,-1068.64 85.14,-1128.64 480.14,-1128.64 480.14,-1068.64 85.14,-1068.64"/>
<polygon fill="none" stroke="#29235c" points="85.14,-1068.64 85.14,-1128.64 480.14,-1128.64 480.14,-1068.64 85.14,-1068.64"/>
<text text-anchor="start" x="96.14" y="-1088.84" font-family="Helvetica,sans-Serif" font-size="32.00" fill="#29235c">column8 &#160;&#160;&#160;</text>
<text text-anchor="start" x="287.79" y="-1089.84" font-family="Helvetica,sans-Serif" font-style="italic" font-size="32.00" fill="#29235c">varchar(255)</text>
<polygon fill="#e7e2dd" stroke="transparent" points="85.14,-1008.64 85.14,-1068.64 480.14,-1068.64 480.14,-1008.64 85.14,-1008.64"/>
<polygon fill="none" stroke="#29235c" points="85.14,-1008.64 85.14,-1068.64 480.14,-1068.64 480.14,-1008.64 85.14,-1008.64"/>
<text text-anchor="start" x="96.14" y="-1028.84" font-family="Helvetica,sans-Serif" font-size="32.00" fill="#29235c">column9 &#160;&#160;&#160;</text>
<text text-anchor="start" x="287.79" y="-1029.84" font-family="Helvetica,sans-Serif" font-style="italic" font-size="32.00" fill="#29235c">varchar(255)</text>
<polygon fill="#e7e2dd" stroke="transparent" points="85.14,-948.64 85.14,-1008.64 480.14,-1008.64 480.14,-948.64 85.14,-948.64"/>
<polygon fill="none" stroke="#29235c" points="85.14,-948.64 85.14,-1008.64 480.14,-1008.64 480.14,-948.64 85.14,-948.64"/>
<text text-anchor="start" x="96.14" y="-968.84" font-family="Helvetica,sans-Serif" font-size="32.00" fill="#29235c">column10 &#160;&#160;&#160;</text>
<text text-anchor="start" x="287.79" y="-969.84" font-family="Helvetica,sans-Serif" font-style="italic" font-size="32.00" fill="#29235c">varchar(255)</text>
<polygon fill="#e7e2dd" stroke="transparent" points="85.14,-888.64 85.14,-948.64 480.14,-948.64 480.14,-888.64 85.14,-888.64"/>
<polygon fill="none" stroke="#29235c" points="85.14,-888.64 85.14,-948.64 480.14,-948.64 480.14,-888.64 85.14,-888.64"/>
<text text-anchor="start" x="96.14" y="-908.84" font-family="Helvetica,sans-Serif" font-size="32.00" fill="#29235c">column11 &#160;&#160;&#160;</text>
<text text-anchor="start" x="287.79" y="-909.84" font-family="Helvetica,sans-Serif" font-style="italic" font-size="32.00" fill="#29235c">varchar(255)</text>
<polygon fill="#e7e2dd" stroke="transparent" points="85.14,-828.64 85.14,-888.64 480.14,-888.64 480.14,-828.64 85.14,-828.64"/>
<polygon fill="none" stroke="#29235c" points="85.14,-828.64 85.14,-888.64 480.14,-888.64 480.14,-828.64 85.14,-828.64"/>
<text text-anchor="start" x="96.14" y="-848.84" font-family="Helvetica,sans-Serif" font-size="32.00" fill="#29235c">column12 &#160;&#160;&#160;</text>
<text text-anchor="start" x="287.79" y="-849.84" font-family="Helvetica,sans-Serif" font-style="italic" font-size="32.00" fill="#29235c">varchar(255)</text>
<polygon fill="#e7e2dd" stroke="transparent" points="85.14,-768.64 85.14,-828.64 480.14,-828.64 480.14,-768.64 85.14,-768.64"/>
<polygon fill="none" stroke="#29235c" points="85.14,-768.64 85.14,-828.64 480.14,-828.64 480.14,-768.64 85.14,-768.64"/>
<text text-anchor="start" x="96.14" y="-788.84" font-family="Helvetica,sans-Serif" font-size="32.00" fill="#29235c">column13 &#160;&#160;&#160;</text>
<text text-anchor="start" x="287.79" y="-789.84" font-family="Helvetica,sans-Serif" font-style="italic" font-size="32.00" fill="#29235c">varchar(255)</text>
<polygon fill="#e7e2dd" stroke="transparent" points="85.14,-708.64 85.14,-768.64 480.14,-768.64 480.14,-708.64 85.14,-708.64"/>
<polygon fill="none" stroke="#29235c" points="85.14,-708.64 85.14,-768.64 480.14,-768.64 480.14,-708.64 85.14,-708.64"/>
<text text-anchor="start" x="96.14" y="-728.84" font-family="Helvetica,sans-Serif" font-size="32.00" fill="#29235c">column14 &#160;&#160;&#160;</text>
<text text-anchor="start" x="287.79" y="-729.84" font-family="Helvetica,sans-Serif" font-style="italic" font-size="32.00" fill="#29235c">varchar(255)</text>
<polygon fill="#e7e2dd" stroke="transparent" points="85.14,-648.64 85.14,-708.64 480.14,-708.64 480.14,-648.64 85.14,-648.64"/>
<polygon fill="none" stroke="#29235c" points="85.14,-648.64 85.14,-708.64 480.14,-708.64 480.14,-648.64 85.14,-648.64"/>
<text text-anchor="start" x="96.14" y="-668.84" font-family="Helvetica,sans-Serif" font-size="32.00" fill="#29235c">column15 &#160;&#160;&#160;</text>
<text text-anchor="start" x="287.79" y="-669.84" font-family="Helvetica,sans-Serif" font-style="italic" font-size="32.00" fill="#29235c">varchar(255)</text>
<polygon fill="#e7e2dd" stroke="transparent" points="85.14,-588.64 85.14,-648.64 480.14,-648.64 480.14,-588.64 85.14,-588.64"/>
<polygon fill="none" stroke="#29235c" points="85.14,-588.64 85.14,-648.64 480.14,-648.64 480.14,-588.64 85.14,-588.64"/>
<text text-anchor="start" x="96.14" y="-608.84" font-family="Helvetica,sans-Serif" font-size="32.00" fill="#29235c">column16 &#160;&#160;&#160;</text>
<text text-anchor="start" x="287.79" y="-609.84" font-family="Helvetica,sans-Serif" font-style="italic" font-size="32.00" fill="#29235c">varchar(255)</text>
<polygon fill="#e7e2dd" stroke="transparent" points="85.14,-528.64 85.14,-588.64 480.14,-588.64 480.14,-528.64 85.14,-528.64"/>
<polygon fill="none" stroke="#29235c" points="85.14,-528.64 85.14,-588.64 480.14,-588.64 480.14,-528.64 85.14,-528.64"/>
<text text-anchor="start" x="96.14" y="-548.84" font-family="Helvetica,sans-Serif" font-size="32.00" fill="#29235c">column17 &#160;&#160;&#160;</text>
<text text-anchor="start" x="287.79" y="-549.84" font-family="Helvetica,sans-Serif" font-style="italic" font-size="32.00" fill="#29235c">varchar(255)</text>
<polygon fill="#e7e2dd" stroke="transparent" points="85.14,-468.64 85.14,-528.64 480.14,-528.64 480.14,-468.64 85.14,-468.64"/>
<polygon fill="none" stroke="#29235c" points="85.14,-468.64 85.14,-528.64 480.14,-528.64 480.14,-468.64 85.14,-468.64"/>
<text text-anchor="start" x="96.14" y="-488.84" font-family="Helvetica,sans-Serif" font-size="32.00" fill="#29235c">column18 &#160;&#160;&#160;</text>
<text text-anchor="start" x="287.79" y="-489.84" font-family="Helvetica,sans-Serif" font-style="italic" font-size="32.00" fill="#29235c">varchar(255)</text>
<polygon fill="#e7e2dd" stroke="transparent" points="85.14,-408.64 85.14,-468.64 480.14,-468.64 480.14,-408.64 85.14,-408.64"/>
<polygon fill="none" stroke="#29235c" points="85.14,-408.64 85.14,-468.64 480.14,-468.64 480.14,-408.64 85.14,-408.64"/>
<text text-anchor="start" x="96.14" y="-428.84" font-family="Helvetica,sans-Serif" font-size="32.00" fill="#29235c">column19 &#160;&#160;&#160;</text>
<text text-anchor="start" x="287.79" y="-429.84" font-family="Helvetica,sans-Serif" font-style="italic" font-size="32.00" fill="#29235c">varchar(255)</text>
<polygon fill="#e7e2dd" stroke="transparent" points="85.14,-348.64 85.14,-408.64 480.14,-408.64 480.14,-348.64 85.14,-348.64"/>
<polygon fill="none" stroke="#29235c" points="85.14,-348.64 85.14,-408.64 480.14,-408.64 480.14,-348.64 85.14,-348.64"/>
<text text-anchor="start" x="96.14" y="-368.84" font-family="Helvetica,sans-Serif" font-size="32.00" fill="#29235c">column20 &#160;&#160;&#160;</text>
<text text-anchor="start" x="287.79" y="-369.84" font-family="Helvetica,sans-Serif" font-style="italic" font-size="32.00" fill="#29235c">varchar(255)</text>
<polygon fill="#e7e2dd" stroke="transparent" points="85.14,-288.64 85.14,-348.64 480.14,-348.64 480.14,-288.64 85.14,-288.64"/>
<polygon fill="none" stroke="#29235c" points="85.14,-288.64 85.14,-348.64 480.14,-348.64 480.14,-288.64 85.14,-288.64"/>
<text text-anchor="start" x="96.11" y="-308.84" font-family="Helvetica,sans-Serif" font-size="32.00" fill="#29235c">column100 &#160;&#160;&#160;</text>
<text text-anchor="start" x="287.96" y="-309.84" font-family="Helvetica,sans-Serif" font-style="italic" font-size="32.00" fill="#29235c">varchar(255)</text>
<polygon fill="none" stroke="#29235c" stroke-width="2" points="83.64,-287.64 83.64,-1669.64 480.64,-1669.64 480.64,-287.64 83.64,-287.64"/>
</g>
</g>
</svg>
