<?xml version="1.0" encoding="UTF-8" standalone="no"?>
<!DOCTYPE svg PUBLIC "-//W3C//DTD SVG 1.1//EN"
 "http://www.w3.org/Graphics/SVG/1.1/DTD/svg11.dtd">
<!-- Generated by graphviz version 2.47.0 (20210316.0004)
 -->
<!-- Title: dbml Pages: 1 -->
<svg width="1584pt" height="2060pt"
 viewBox="0.00 0.00 1584.08 2060.07" xmlns="http://www.w3.org/2000/svg" xmlns:xlink="http://www.w3.org/1999/xlink">
<g id="graph0" class="graph" transform="scale(1 1) rotate(0) translate(4 2056.07)">
<title>dbml</title>
<!-- employees_gender_enum -->
<g id="employees_gender_enum" class="node">
<title>employees_gender_enum</title>
<ellipse fill="none" stroke="black" stroke-width="0" cx="1208.38" cy="-130.11" rx="367.89" ry="130.22"/>
<polygon fill="#29235c" stroke="transparent" points="950.38,-160.11 950.38,-220.11 1466.38,-220.11 1466.38,-160.11 950.38,-160.11"/>
<polygon fill="none" stroke="#29235c" points="950.38,-160.11 950.38,-220.11 1466.38,-220.11 1466.38,-160.11 950.38,-160.11"/>
<text text-anchor="start" x="961.19" y="-181.31" font-family="Helvetica,sans-Serif" font-weight="bold" font-size="32.00" fill="#ffffff"> &#160;&#160;&#160;&#160;&#160;&#160;employees_gender_enum &#160;&#160;&#160;&#160;&#160;&#160;</text>
<polygon fill="#e7e2dd" stroke="transparent" points="950.38,-100.11 950.38,-160.11 1466.38,-160.11 1466.38,-100.11 950.38,-100.11"/>
<polygon fill="none" stroke="#29235c" points="950.38,-100.11 950.38,-160.11 1466.38,-160.11 1466.38,-100.11 950.38,-100.11"/>
<text text-anchor="start" x="1159.49" y="-121.31" font-family="Helvetica,sans-Serif" font-style="italic" font-size="32.00" fill="#1d71b8"> &#160;&#160;&#160;M &#160;&#160;&#160;</text>
<polygon fill="#e7e2dd" stroke="transparent" points="950.38,-40.11 950.38,-100.11 1466.38,-100.11 1466.38,-40.11 950.38,-40.11"/>
<polygon fill="none" stroke="#29235c" points="950.38,-40.11 950.38,-100.11 1466.38,-100.11 1466.38,-40.11 950.38,-40.11"/>
<text text-anchor="start" x="1163.04" y="-61.31" font-family="Helvetica,sans-Serif" font-style="italic" font-size="32.00" fill="#1d71b8"> &#160;&#160;&#160;F &#160;&#160;&#160;</text>
<polygon fill="none" stroke="#29235c" stroke-width="2" points="949.38,-39.11 949.38,-221.11 1467.38,-221.11 1467.38,-39.11 949.38,-39.11"/>
</g>
<!-- departments -->
<g id="departments" class="node">
<title>departments</title>
<ellipse fill="none" stroke="black" stroke-width="0" cx="402.34" cy="-1643.11" rx="299.21" ry="130.22"/>
<polygon fill="#1d71b8" stroke="transparent" points="193.34,-1673.11 193.34,-1733.11 612.34,-1733.11 612.34,-1673.11 193.34,-1673.11"/>
<polygon fill="none" stroke="#29235c" points="193.34,-1673.11 193.34,-1733.11 612.34,-1733.11 612.34,-1673.11 193.34,-1673.11"/>
<text text-anchor="start" x="251.68" y="-1694.31" font-family="Helvetica,sans-Serif" font-weight="bold" font-size="32.00" fill="#ffffff"> &#160;&#160;&#160;&#160;&#160;&#160;departments &#160;&#160;&#160;&#160;&#160;&#160;</text>
<polygon fill="#e7e2dd" stroke="transparent" points="193.34,-1613.11 193.34,-1673.11 612.34,-1673.11 612.34,-1613.11 193.34,-1613.11"/>
<polygon fill="none" stroke="#29235c" points="193.34,-1613.11 193.34,-1673.11 612.34,-1673.11 612.34,-1613.11 193.34,-1613.11"/>
<text text-anchor="start" x="204.34" y="-1634.31" font-family="Helvetica,sans-Serif" font-weight="bold" font-size="32.00" fill="#29235c">dept_no</text>
<text text-anchor="start" x="319.97" y="-1634.31" font-family="Helvetica,sans-Serif" font-size="32.00" fill="#29235c"> &#160;&#160;&#160;</text>
<text text-anchor="start" x="460.93" y="-1634.31" font-family="Helvetica,sans-Serif" font-style="italic" font-size="32.00" fill="#29235c">char(4)</text>
<text text-anchor="start" x="562.25" y="-1634.31" font-family="Helvetica,sans-Serif" font-size="32.00" fill="#29235c"> </text>
<text text-anchor="start" x="571.15" y="-1634.31" font-family="Helvetica,sans-Serif" font-weight="bold" font-size="32.00" fill="#29235c">(!)</text>
<polygon fill="#e7e2dd" stroke="transparent" points="193.34,-1553.11 193.34,-1613.11 612.34,-1613.11 612.34,-1553.11 193.34,-1553.11"/>
<polygon fill="none" stroke="#29235c" points="193.34,-1553.11 193.34,-1613.11 612.34,-1613.11 612.34,-1553.11 193.34,-1553.11"/>
<text text-anchor="start" x="204.02" y="-1573.31" font-family="Helvetica,sans-Serif" font-size="32.00" fill="#29235c">dept_name &#160;&#160;&#160;</text>
<text text-anchor="start" x="399.02" y="-1574.31" font-family="Helvetica,sans-Serif" font-style="italic" font-size="32.00" fill="#29235c">varchar(40)</text>
<text text-anchor="start" x="562.58" y="-1574.31" font-family="Helvetica,sans-Serif" font-size="32.00" fill="#29235c"> </text>
<text text-anchor="start" x="571.47" y="-1574.31" font-family="Helvetica,sans-Serif" font-weight="bold" font-size="32.00" fill="#29235c">(!)</text>
<polygon fill="none" stroke="#29235c" stroke-width="2" points="191.84,-1552.11 191.84,-1734.11 612.84,-1734.11 612.84,-1552.11 191.84,-1552.11"/>
</g>
<!-- dept_emp -->
<g id="dept_emp" class="node">
<title>dept_emp</title>
<ellipse fill="none" stroke="black" stroke-width="0" cx="1208.38" cy="-1389.11" rx="224.31" ry="214.92"/>
<polygon fill="#1d71b8" stroke="transparent" points="1052.38,-1479.11 1052.38,-1539.11 1365.38,-1539.11 1365.38,-1479.11 1052.38,-1479.11"/>
<polygon fill="none" stroke="#29235c" points="1052.38,-1479.11 1052.38,-1539.11 1365.38,-1539.11 1365.38,-1479.11 1052.38,-1479.11"/>
<text text-anchor="start" x="1075.49" y="-1500.31" font-family="Helvetica,sans-Serif" font-weight="bold" font-size="32.00" fill="#ffffff"> &#160;&#160;&#160;&#160;&#160;&#160;dept_emp &#160;&#160;&#160;&#160;&#160;&#160;</text>
<polygon fill="#e7e2dd" stroke="transparent" points="1052.38,-1419.11 1052.38,-1479.11 1365.38,-1479.11 1365.38,-1419.11 1052.38,-1419.11"/>
<polygon fill="none" stroke="#29235c" points="1052.38,-1419.11 1052.38,-1479.11 1365.38,-1479.11 1365.38,-1419.11 1052.38,-1419.11"/>
<text text-anchor="start" x="1063.38" y="-1440.31" font-family="Helvetica,sans-Serif" font-weight="bold" font-size="32.00" fill="#29235c">emp_no</text>
<text text-anchor="start" x="1178.98" y="-1440.31" font-family="Helvetica,sans-Serif" font-size="32.00" fill="#29235c"> &#160;&#160;&#160;</text>
<text text-anchor="start" x="1281.51" y="-1440.31" font-family="Helvetica,sans-Serif" font-style="italic" font-size="32.00" fill="#29235c">int</text>
<text text-anchor="start" x="1315.29" y="-1440.31" font-family="Helvetica,sans-Serif" font-size="32.00" fill="#29235c"> </text>
<text text-anchor="start" x="1324.18" y="-1440.31" font-family="Helvetica,sans-Serif" font-weight="bold" font-size="32.00" fill="#29235c">(!)</text>
<polygon fill="#e7e2dd" stroke="transparent" points="1052.38,-1359.11 1052.38,-1419.11 1365.38,-1419.11 1365.38,-1359.11 1052.38,-1359.11"/>
<polygon fill="none" stroke="#29235c" points="1052.38,-1359.11 1052.38,-1419.11 1365.38,-1419.11 1365.38,-1359.11 1052.38,-1359.11"/>
<text text-anchor="start" x="1063.28" y="-1380.31" font-family="Helvetica,sans-Serif" font-weight="bold" font-size="32.00" fill="#29235c">dept_no</text>
<text text-anchor="start" x="1178.91" y="-1380.31" font-family="Helvetica,sans-Serif" font-size="32.00" fill="#29235c"> &#160;&#160;&#160;</text>
<text text-anchor="start" x="1214.18" y="-1380.31" font-family="Helvetica,sans-Serif" font-style="italic" font-size="32.00" fill="#29235c">char(4)</text>
<text text-anchor="start" x="1315.5" y="-1380.31" font-family="Helvetica,sans-Serif" font-size="32.00" fill="#29235c"> </text>
<text text-anchor="start" x="1324.39" y="-1380.31" font-family="Helvetica,sans-Serif" font-weight="bold" font-size="32.00" fill="#29235c">(!)</text>
<polygon fill="#e7e2dd" stroke="transparent" points="1052.38,-1299.11 1052.38,-1359.11 1365.38,-1359.11 1365.38,-1299.11 1052.38,-1299.11"/>
<polygon fill="none" stroke="#29235c" points="1052.38,-1299.11 1052.38,-1359.11 1365.38,-1359.11 1365.38,-1299.11 1052.38,-1299.11"/>
<text text-anchor="start" x="1063.38" y="-1319.31" font-family="Helvetica,sans-Serif" font-size="32.00" fill="#29235c">from_date &#160;&#160;&#160;</text>
<text text-anchor="start" x="1253.03" y="-1320.31" font-family="Helvetica,sans-Serif" font-style="italic" font-size="32.00" fill="#29235c">date</text>
<text text-anchor="start" x="1315.29" y="-1320.31" font-family="Helvetica,sans-Serif" font-size="32.00" fill="#29235c"> </text>
<text text-anchor="start" x="1324.18" y="-1320.31" font-family="Helvetica,sans-Serif" font-weight="bold" font-size="32.00" fill="#29235c">(!)</text>
<polygon fill="#e7e2dd" stroke="transparent" points="1052.38,-1239.11 1052.38,-1299.11 1365.38,-1299.11 1365.38,-1239.11 1052.38,-1239.11"/>
<polygon fill="none" stroke="#29235c" points="1052.38,-1239.11 1052.38,-1299.11 1365.38,-1299.11 1365.38,-1239.11 1052.38,-1239.11"/>
<text text-anchor="start" x="1063.38" y="-1259.31" font-family="Helvetica,sans-Serif" font-size="32.00" fill="#29235c">to_date &#160;&#160;&#160;</text>
<text text-anchor="start" x="1253.03" y="-1260.31" font-family="Helvetica,sans-Serif" font-style="italic" font-size="32.00" fill="#29235c">date</text>
<text text-anchor="start" x="1315.29" y="-1260.31" font-family="Helvetica,sans-Serif" font-size="32.00" fill="#29235c"> </text>
<text text-anchor="start" x="1324.18" y="-1260.31" font-family="Helvetica,sans-Serif" font-weight="bold" font-size="32.00" fill="#29235c">(!)</text>
<polygon fill="none" stroke="#29235c" stroke-width="2" points="1050.88,-1238.11 1050.88,-1540.11 1365.88,-1540.11 1365.88,-1238.11 1050.88,-1238.11"/>
</g>
<!-- departments&#45;&gt;dept_emp -->
<!-- departments&#45;&gt;dept_emp -->
<g id="edge4" class="edge">
<title>departments:e&#45;&gt;dept_emp:w</title>
<path fill="none" stroke="#29235c" stroke-width="3" d="M613.34,-1643.11C834.98,-1643.11 826.65,-1396.74 1041.32,-1389.28"/>
<polygon fill="#29235c" stroke="#29235c" stroke-width="3" points="1041.44,-1392.78 1051.38,-1389.11 1041.32,-1385.78 1041.44,-1392.78"/>
<text text-anchor="middle" x="1057.61" y="-1360.31" font-family="Helvetica,sans-Serif" font-size="32.00" fill="#29235c">*</text>
<text text-anchor="middle" x="604.45" y="-1652.71" font-family="Helvetica,sans-Serif" font-size="32.00" fill="#29235c">1</text>
</g>
<!-- dept_manager -->
<g id="dept_manager" class="node">
<title>dept_manager</title>
<ellipse fill="none" stroke="black" stroke-width="0" cx="1208.38" cy="-1837.11" rx="251.96" ry="214.92"/>
<polygon fill="#1d71b8" stroke="transparent" points="1032.38,-1927.11 1032.38,-1987.11 1384.38,-1987.11 1384.38,-1927.11 1032.38,-1927.11"/>
<polygon fill="none" stroke="#29235c" points="1032.38,-1927.11 1032.38,-1987.11 1384.38,-1987.11 1384.38,-1927.11 1032.38,-1927.11"/>
<text text-anchor="start" x="1042.98" y="-1948.31" font-family="Helvetica,sans-Serif" font-weight="bold" font-size="32.00" fill="#ffffff"> &#160;&#160;&#160;&#160;&#160;&#160;dept_manager &#160;&#160;&#160;&#160;&#160;&#160;</text>
<polygon fill="#e7e2dd" stroke="transparent" points="1032.38,-1867.11 1032.38,-1927.11 1384.38,-1927.11 1384.38,-1867.11 1032.38,-1867.11"/>
<polygon fill="none" stroke="#29235c" points="1032.38,-1867.11 1032.38,-1927.11 1384.38,-1927.11 1384.38,-1867.11 1032.38,-1867.11"/>
<text text-anchor="start" x="1043.38" y="-1888.31" font-family="Helvetica,sans-Serif" font-weight="bold" font-size="32.00" fill="#29235c">emp_no</text>
<text text-anchor="start" x="1158.98" y="-1888.31" font-family="Helvetica,sans-Serif" font-size="32.00" fill="#29235c"> &#160;&#160;&#160;</text>
<text text-anchor="start" x="1300.51" y="-1888.31" font-family="Helvetica,sans-Serif" font-style="italic" font-size="32.00" fill="#29235c">int</text>
<text text-anchor="start" x="1334.29" y="-1888.31" font-family="Helvetica,sans-Serif" font-size="32.00" fill="#29235c"> </text>
<text text-anchor="start" x="1343.18" y="-1888.31" font-family="Helvetica,sans-Serif" font-weight="bold" font-size="32.00" fill="#29235c">(!)</text>
<polygon fill="#e7e2dd" stroke="transparent" points="1032.38,-1807.11 1032.38,-1867.11 1384.38,-1867.11 1384.38,-1807.11 1032.38,-1807.11"/>
<polygon fill="none" stroke="#29235c" points="1032.38,-1807.11 1032.38,-1867.11 1384.38,-1867.11 1384.38,-1807.11 1032.38,-1807.11"/>
<text text-anchor="start" x="1043.38" y="-1828.31" font-family="Helvetica,sans-Serif" font-weight="bold" font-size="32.00" fill="#29235c">dept_no</text>
<text text-anchor="start" x="1159.01" y="-1828.31" font-family="Helvetica,sans-Serif" font-size="32.00" fill="#29235c"> &#160;&#160;&#160;</text>
<text text-anchor="start" x="1232.97" y="-1828.31" font-family="Helvetica,sans-Serif" font-style="italic" font-size="32.00" fill="#29235c">char(4)</text>
<text text-anchor="start" x="1334.29" y="-1828.31" font-family="Helvetica,sans-Serif" font-size="32.00" fill="#29235c"> </text>
<text text-anchor="start" x="1343.18" y="-1828.31" font-family="Helvetica,sans-Serif" font-weight="bold" font-size="32.00" fill="#29235c">(!)</text>
<polygon fill="#e7e2dd" stroke="transparent" points="1032.38,-1747.11 1032.38,-1807.11 1384.38,-1807.11 1384.38,-1747.11 1032.38,-1747.11"/>
<polygon fill="none" stroke="#29235c" points="1032.38,-1747.11 1032.38,-1807.11 1384.38,-1807.11 1384.38,-1747.11 1032.38,-1747.11"/>
<text text-anchor="start" x="1043.38" y="-1767.31" font-family="Helvetica,sans-Serif" font-size="32.00" fill="#29235c">from_date &#160;&#160;&#160;</text>
<text text-anchor="start" x="1272.03" y="-1768.31" font-family="Helvetica,sans-Serif" font-style="italic" font-size="32.00" fill="#29235c">date</text>
<text text-anchor="start" x="1334.29" y="-1768.31" font-family="Helvetica,sans-Serif" font-size="32.00" fill="#29235c"> </text>
<text text-anchor="start" x="1343.18" y="-1768.31" font-family="Helvetica,sans-Serif" font-weight="bold" font-size="32.00" fill="#29235c">(!)</text>
<polygon fill="#e7e2dd" stroke="transparent" points="1032.38,-1687.11 1032.38,-1747.11 1384.38,-1747.11 1384.38,-1687.11 1032.38,-1687.11"/>
<polygon fill="none" stroke="#29235c" points="1032.38,-1687.11 1032.38,-1747.11 1384.38,-1747.11 1384.38,-1687.11 1032.38,-1687.11"/>
<text text-anchor="start" x="1043.38" y="-1707.31" font-family="Helvetica,sans-Serif" font-size="32.00" fill="#29235c">to_date &#160;&#160;&#160;</text>
<text text-anchor="start" x="1272.03" y="-1708.31" font-family="Helvetica,sans-Serif" font-style="italic" font-size="32.00" fill="#29235c">date</text>
<text text-anchor="start" x="1334.29" y="-1708.31" font-family="Helvetica,sans-Serif" font-size="32.00" fill="#29235c"> </text>
<text text-anchor="start" x="1343.18" y="-1708.31" font-family="Helvetica,sans-Serif" font-weight="bold" font-size="32.00" fill="#29235c">(!)</text>
<polygon fill="none" stroke="#29235c" stroke-width="2" points="1031.38,-1686.11 1031.38,-1988.11 1385.38,-1988.11 1385.38,-1686.11 1031.38,-1686.11"/>
</g>
<!-- departments&#45;&gt;dept_manager -->
<!-- departments&#45;&gt;dept_manager -->
<g id="edge8" class="edge">
<title>departments:e&#45;&gt;dept_manager:w</title>
<path fill="none" stroke="#29235c" stroke-width="3" d="M613.34,-1643.11C814.77,-1643.11 826.22,-1830.72 1021.34,-1836.95"/>
<polygon fill="#29235c" stroke="#29235c" stroke-width="3" points="1021.33,-1840.45 1031.38,-1837.11 1021.44,-1833.45 1021.33,-1840.45"/>
<text text-anchor="middle" x="1037.61" y="-1846.71" font-family="Helvetica,sans-Serif" font-size="32.00" fill="#29235c">*</text>
<text text-anchor="middle" x="622.24" y="-1652.71" font-family="Helvetica,sans-Serif" font-size="32.00" fill="#29235c">1</text>
</g>
<!-- employees -->
<g id="employees" class="node">
<title>employees</title>
<ellipse fill="none" stroke="black" stroke-width="0" cx="402.34" cy="-881.11" rx="402.19" ry="299.63"/>
<polygon fill="#1d71b8" stroke="transparent" points="120.34,-1031.11 120.34,-1091.11 685.34,-1091.11 685.34,-1031.11 120.34,-1031.11"/>
<polygon fill="none" stroke="#29235c" points="120.34,-1031.11 120.34,-1091.11 685.34,-1091.11 685.34,-1031.11 120.34,-1031.11"/>
<text text-anchor="start" x="263.25" y="-1052.31" font-family="Helvetica,sans-Serif" font-weight="bold" font-size="32.00" fill="#ffffff"> &#160;&#160;&#160;&#160;&#160;&#160;employees &#160;&#160;&#160;&#160;&#160;&#160;</text>
<polygon fill="#e7e2dd" stroke="transparent" points="120.34,-971.11 120.34,-1031.11 685.34,-1031.11 685.34,-971.11 120.34,-971.11"/>
<polygon fill="none" stroke="#29235c" points="120.34,-971.11 120.34,-1031.11 685.34,-1031.11 685.34,-971.11 120.34,-971.11"/>
<text text-anchor="start" x="131.34" y="-992.31" font-family="Helvetica,sans-Serif" font-weight="bold" font-size="32.00" fill="#29235c">emp_no</text>
<text text-anchor="start" x="246.94" y="-992.31" font-family="Helvetica,sans-Serif" font-size="32.00" fill="#29235c"> &#160;&#160;&#160;</text>
<text text-anchor="start" x="601.47" y="-992.31" font-family="Helvetica,sans-Serif" font-style="italic" font-size="32.00" fill="#29235c">int</text>
<text text-anchor="start" x="635.25" y="-992.31" font-family="Helvetica,sans-Serif" font-size="32.00" fill="#29235c"> </text>
<text text-anchor="start" x="644.15" y="-992.31" font-family="Helvetica,sans-Serif" font-weight="bold" font-size="32.00" fill="#29235c">(!)</text>
<polygon fill="#e7e2dd" stroke="transparent" points="120.34,-911.11 120.34,-971.11 685.34,-971.11 685.34,-911.11 120.34,-911.11"/>
<polygon fill="none" stroke="#29235c" points="120.34,-911.11 120.34,-971.11 685.34,-971.11 685.34,-911.11 120.34,-911.11"/>
<text text-anchor="start" x="131.34" y="-931.31" font-family="Helvetica,sans-Serif" font-size="32.00" fill="#29235c">birth_date &#160;&#160;&#160;</text>
<text text-anchor="start" x="572.99" y="-932.31" font-family="Helvetica,sans-Serif" font-style="italic" font-size="32.00" fill="#29235c">date</text>
<text text-anchor="start" x="635.25" y="-932.31" font-family="Helvetica,sans-Serif" font-size="32.00" fill="#29235c"> </text>
<text text-anchor="start" x="644.15" y="-932.31" font-family="Helvetica,sans-Serif" font-weight="bold" font-size="32.00" fill="#29235c">(!)</text>
<polygon fill="#e7e2dd" stroke="transparent" points="120.34,-851.11 120.34,-911.11 685.34,-911.11 685.34,-851.11 120.34,-851.11"/>
<polygon fill="none" stroke="#29235c" points="120.34,-851.11 120.34,-911.11 685.34,-911.11 685.34,-851.11 120.34,-851.11"/>
<text text-anchor="start" x="131.34" y="-871.31" font-family="Helvetica,sans-Serif" font-size="32.00" fill="#29235c">first_name &#160;&#160;&#160;</text>
<text text-anchor="start" x="471.7" y="-872.31" font-family="Helvetica,sans-Serif" font-style="italic" font-size="32.00" fill="#29235c">varchar(14)</text>
<text text-anchor="start" x="635.25" y="-872.31" font-family="Helvetica,sans-Serif" font-size="32.00" fill="#29235c"> </text>
<text text-anchor="start" x="644.15" y="-872.31" font-family="Helvetica,sans-Serif" font-weight="bold" font-size="32.00" fill="#29235c">(!)</text>
<polygon fill="#e7e2dd" stroke="transparent" points="120.34,-791.11 120.34,-851.11 685.34,-851.11 685.34,-791.11 120.34,-791.11"/>
<polygon fill="none" stroke="#29235c" points="120.34,-791.11 120.34,-851.11 685.34,-851.11 685.34,-791.11 120.34,-791.11"/>
<text text-anchor="start" x="131.34" y="-811.31" font-family="Helvetica,sans-Serif" font-size="32.00" fill="#29235c">last_name &#160;&#160;&#160;</text>
<text text-anchor="start" x="471.7" y="-812.31" font-family="Helvetica,sans-Serif" font-style="italic" font-size="32.00" fill="#29235c">varchar(16)</text>
<text text-anchor="start" x="635.25" y="-812.31" font-family="Helvetica,sans-Serif" font-size="32.00" fill="#29235c"> </text>
<text text-anchor="start" x="644.15" y="-812.31" font-family="Helvetica,sans-Serif" font-weight="bold" font-size="32.00" fill="#29235c">(!)</text>
<polygon fill="#e7e2dd" stroke="transparent" points="120.34,-731.11 120.34,-791.11 685.34,-791.11 685.34,-731.11 120.34,-731.11"/>
<polygon fill="none" stroke="#29235c" points="120.34,-731.11 120.34,-791.11 685.34,-791.11 685.34,-731.11 120.34,-731.11"/>
<text text-anchor="start" x="131.26" y="-751.31" font-family="Helvetica,sans-Serif" font-size="32.00" fill="#29235c">gender &#160;&#160;&#160;</text>
<text text-anchor="start" x="265.85" y="-752.31" font-family="Helvetica,sans-Serif" font-style="italic" font-size="32.00" fill="#29235c">employees_gender_enum</text>
<text text-anchor="start" x="635.74" y="-752.31" font-family="Helvetica,sans-Serif" font-size="32.00" fill="#29235c"> </text>
<text text-anchor="start" x="644.64" y="-752.31" font-family="Helvetica,sans-Serif" font-weight="bold" font-size="32.00" fill="#29235c">(!)</text>
<polygon fill="#e7e2dd" stroke="transparent" points="120.34,-671.11 120.34,-731.11 685.34,-731.11 685.34,-671.11 120.34,-671.11"/>
<polygon fill="none" stroke="#29235c" points="120.34,-671.11 120.34,-731.11 685.34,-731.11 685.34,-671.11 120.34,-671.11"/>
<text text-anchor="start" x="131.34" y="-691.31" font-family="Helvetica,sans-Serif" font-size="32.00" fill="#29235c">hire_date &#160;&#160;&#160;</text>
<text text-anchor="start" x="572.99" y="-692.31" font-family="Helvetica,sans-Serif" font-style="italic" font-size="32.00" fill="#29235c">date</text>
<text text-anchor="start" x="635.25" y="-692.31" font-family="Helvetica,sans-Serif" font-size="32.00" fill="#29235c"> </text>
<text text-anchor="start" x="644.15" y="-692.31" font-family="Helvetica,sans-Serif" font-weight="bold" font-size="32.00" fill="#29235c">(!)</text>
<polygon fill="none" stroke="#29235c" stroke-width="2" points="118.84,-670.11 118.84,-1092.11 685.84,-1092.11 685.84,-670.11 118.84,-670.11"/>
</g>
<!-- employees&#45;&gt;employees_gender_enum -->
<g id="edge13" class="edge">
<title>employees:e&#45;&gt;employees_gender_enum:w</title>
<path fill="none" stroke="#29235c" stroke-width="3" d="M686.34,-761.11C965.75,-761.11 669.97,-190.11 949.38,-190.11"/>
</g>
<!-- employees&#45;&gt;dept_emp -->
<!-- employees&#45;&gt;dept_emp -->
<g id="edge2" class="edge">
<title>employees:e&#45;&gt;dept_emp:w</title>
<path fill="none" stroke="#29235c" stroke-width="3" d="M686.34,-1001.11C811.38,-1001.11 917.24,-1425.79 1041.27,-1448.19"/>
<polygon fill="#29235c" stroke="#29235c" stroke-width="3" points="1041.11,-1451.69 1051.38,-1449.11 1041.74,-1444.72 1041.11,-1451.69"/>
<text text-anchor="middle" x="1057.61" y="-1420.31" font-family="Helvetica,sans-Serif" font-size="32.00" fill="#29235c">*</text>
<text text-anchor="middle" x="677.45" y="-972.31" font-family="Helvetica,sans-Serif" font-size="32.00" fill="#29235c">1</text>
</g>
<!-- employees&#45;&gt;dept_manager -->
<!-- employees&#45;&gt;dept_manager -->
<g id="edge6" class="edge">
<title>employees:e&#45;&gt;dept_manager:w</title>
<path fill="none" stroke="#29235c" stroke-width="3" d="M686.34,-1001.11C966.86,-1001.11 726.51,-1356.88 840.69,-1613.11 901.12,-1748.73 880.39,-1890.31 1020.98,-1896.87"/>
<polygon fill="#29235c" stroke="#29235c" stroke-width="3" points="1021.31,-1900.38 1031.38,-1897.11 1021.47,-1893.38 1021.31,-1900.38"/>
<text text-anchor="middle" x="1037.61" y="-1906.71" font-family="Helvetica,sans-Serif" font-size="32.00" fill="#29235c">*</text>
<text text-anchor="middle" x="695.24" y="-972.31" font-family="Helvetica,sans-Serif" font-size="32.00" fill="#29235c">1</text>
</g>
<!-- salaries -->
<g id="salaries" class="node">
<title>salaries</title>
<ellipse fill="none" stroke="black" stroke-width="0" cx="1208.38" cy="-493.11" rx="216.25" ry="214.92"/>
<polygon fill="#1d71b8" stroke="transparent" points="1057.38,-583.11 1057.38,-643.11 1359.38,-643.11 1359.38,-583.11 1057.38,-583.11"/>
<polygon fill="none" stroke="#29235c" points="1057.38,-583.11 1057.38,-643.11 1359.38,-643.11 1359.38,-583.11 1057.38,-583.11"/>
<text text-anchor="start" x="1091.02" y="-604.31" font-family="Helvetica,sans-Serif" font-weight="bold" font-size="32.00" fill="#ffffff"> &#160;&#160;&#160;&#160;&#160;&#160;salaries &#160;&#160;&#160;&#160;&#160;&#160;</text>
<polygon fill="#e7e2dd" stroke="transparent" points="1057.38,-523.11 1057.38,-583.11 1359.38,-583.11 1359.38,-523.11 1057.38,-523.11"/>
<polygon fill="none" stroke="#29235c" points="1057.38,-523.11 1057.38,-583.11 1359.38,-583.11 1359.38,-523.11 1057.38,-523.11"/>
<text text-anchor="start" x="1068.38" y="-544.31" font-family="Helvetica,sans-Serif" font-weight="bold" font-size="32.00" fill="#29235c">emp_no</text>
<text text-anchor="start" x="1183.98" y="-544.31" font-family="Helvetica,sans-Serif" font-size="32.00" fill="#29235c"> &#160;&#160;&#160;</text>
<text text-anchor="start" x="1275.51" y="-544.31" font-family="Helvetica,sans-Serif" font-style="italic" font-size="32.00" fill="#29235c">int</text>
<text text-anchor="start" x="1309.29" y="-544.31" font-family="Helvetica,sans-Serif" font-size="32.00" fill="#29235c"> </text>
<text text-anchor="start" x="1318.18" y="-544.31" font-family="Helvetica,sans-Serif" font-weight="bold" font-size="32.00" fill="#29235c">(!)</text>
<polygon fill="#e7e2dd" stroke="transparent" points="1057.38,-463.11 1057.38,-523.11 1359.38,-523.11 1359.38,-463.11 1057.38,-463.11"/>
<polygon fill="none" stroke="#29235c" points="1057.38,-463.11 1057.38,-523.11 1359.38,-523.11 1359.38,-463.11 1057.38,-463.11"/>
<text text-anchor="start" x="1068.38" y="-483.31" font-family="Helvetica,sans-Serif" font-size="32.00" fill="#29235c">salary &#160;&#160;&#160;</text>
<text text-anchor="start" x="1275.51" y="-484.31" font-family="Helvetica,sans-Serif" font-style="italic" font-size="32.00" fill="#29235c">int</text>
<text text-anchor="start" x="1309.29" y="-484.31" font-family="Helvetica,sans-Serif" font-size="32.00" fill="#29235c"> </text>
<text text-anchor="start" x="1318.18" y="-484.31" font-family="Helvetica,sans-Serif" font-weight="bold" font-size="32.00" fill="#29235c">(!)</text>
<polygon fill="#e7e2dd" stroke="transparent" points="1057.38,-403.11 1057.38,-463.11 1359.38,-463.11 1359.38,-403.11 1057.38,-403.11"/>
<polygon fill="none" stroke="#29235c" points="1057.38,-403.11 1057.38,-463.11 1359.38,-463.11 1359.38,-403.11 1057.38,-403.11"/>
<text text-anchor="start" x="1068.08" y="-424.31" font-family="Helvetica,sans-Serif" font-weight="bold" font-size="32.00" fill="#29235c">from_date</text>
<text text-anchor="start" x="1212.12" y="-424.31" font-family="Helvetica,sans-Serif" font-size="32.00" fill="#29235c"> &#160;&#160;&#160;</text>
<text text-anchor="start" x="1247.21" y="-424.31" font-family="Helvetica,sans-Serif" font-style="italic" font-size="32.00" fill="#29235c">date</text>
<text text-anchor="start" x="1309.47" y="-424.31" font-family="Helvetica,sans-Serif" font-size="32.00" fill="#29235c"> </text>
<text text-anchor="start" x="1318.36" y="-424.31" font-family="Helvetica,sans-Serif" font-weight="bold" font-size="32.00" fill="#29235c">(!)</text>
<polygon fill="#e7e2dd" stroke="transparent" points="1057.38,-343.11 1057.38,-403.11 1359.38,-403.11 1359.38,-343.11 1057.38,-343.11"/>
<polygon fill="none" stroke="#29235c" points="1057.38,-343.11 1057.38,-403.11 1359.38,-403.11 1359.38,-343.11 1057.38,-343.11"/>
<text text-anchor="start" x="1068.38" y="-363.31" font-family="Helvetica,sans-Serif" font-size="32.00" fill="#29235c">to_date &#160;&#160;&#160;</text>
<text text-anchor="start" x="1247.03" y="-364.31" font-family="Helvetica,sans-Serif" font-style="italic" font-size="32.00" fill="#29235c">date</text>
<text text-anchor="start" x="1309.29" y="-364.31" font-family="Helvetica,sans-Serif" font-size="32.00" fill="#29235c"> </text>
<text text-anchor="start" x="1318.18" y="-364.31" font-family="Helvetica,sans-Serif" font-weight="bold" font-size="32.00" fill="#29235c">(!)</text>
<polygon fill="none" stroke="#29235c" stroke-width="2" points="1056.38,-342.11 1056.38,-644.11 1360.38,-644.11 1360.38,-342.11 1056.38,-342.11"/>
</g>
<!-- employees&#45;&gt;salaries -->
<!-- employees&#45;&gt;salaries -->
<g id="edge10" class="edge">
<title>employees:e&#45;&gt;salaries:w</title>
<path fill="none" stroke="#29235c" stroke-width="3" d="M686.34,-1001.11C830,-1001.11 747.13,-826.12 840.69,-717.11 916.82,-628.4 934.92,-557.38 1046.06,-553.29"/>
<polygon fill="#29235c" stroke="#29235c" stroke-width="3" points="1046.45,-556.79 1056.38,-553.11 1046.32,-549.79 1046.45,-556.79"/>
<text text-anchor="middle" x="1062.61" y="-524.31" font-family="Helvetica,sans-Serif" font-size="32.00" fill="#29235c">*</text>
<text text-anchor="middle" x="677.45" y="-1010.71" font-family="Helvetica,sans-Serif" font-size="32.00" fill="#29235c">1</text>
</g>
<!-- titles -->
<g id="titles" class="node">
<title>titles</title>
<ellipse fill="none" stroke="black" stroke-width="0" cx="1208.38" cy="-941.11" rx="221.15" ry="214.92"/>
<polygon fill="#1d71b8" stroke="transparent" points="1054.38,-1031.11 1054.38,-1091.11 1363.38,-1091.11 1363.38,-1031.11 1054.38,-1031.11"/>
<polygon fill="none" stroke="#29235c" points="1054.38,-1031.11 1054.38,-1091.11 1363.38,-1091.11 1363.38,-1031.11 1054.38,-1031.11"/>
<text text-anchor="start" x="1113.75" y="-1052.31" font-family="Helvetica,sans-Serif" font-weight="bold" font-size="32.00" fill="#ffffff"> &#160;&#160;&#160;&#160;&#160;&#160;titles &#160;&#160;&#160;&#160;&#160;&#160;</text>
<polygon fill="#e7e2dd" stroke="transparent" points="1054.38,-971.11 1054.38,-1031.11 1363.38,-1031.11 1363.38,-971.11 1054.38,-971.11"/>
<polygon fill="none" stroke="#29235c" points="1054.38,-971.11 1054.38,-1031.11 1363.38,-1031.11 1363.38,-971.11 1054.38,-971.11"/>
<text text-anchor="start" x="1065.38" y="-992.31" font-family="Helvetica,sans-Serif" font-weight="bold" font-size="32.00" fill="#29235c">emp_no</text>
<text text-anchor="start" x="1180.98" y="-992.31" font-family="Helvetica,sans-Serif" font-size="32.00" fill="#29235c"> &#160;&#160;&#160;</text>
<text text-anchor="start" x="1279.51" y="-992.31" font-family="Helvetica,sans-Serif" font-style="italic" font-size="32.00" fill="#29235c">int</text>
<text text-anchor="start" x="1313.29" y="-992.31" font-family="Helvetica,sans-Serif" font-size="32.00" fill="#29235c"> </text>
<text text-anchor="start" x="1322.18" y="-992.31" font-family="Helvetica,sans-Serif" font-weight="bold" font-size="32.00" fill="#29235c">(!)</text>
<polygon fill="#e7e2dd" stroke="transparent" points="1054.38,-911.11 1054.38,-971.11 1363.38,-971.11 1363.38,-911.11 1054.38,-911.11"/>
<polygon fill="none" stroke="#29235c" points="1054.38,-911.11 1054.38,-971.11 1363.38,-971.11 1363.38,-911.11 1054.38,-911.11"/>
<text text-anchor="start" x="1065.21" y="-932.31" font-family="Helvetica,sans-Serif" font-weight="bold" font-size="32.00" fill="#29235c">title</text>
<text text-anchor="start" x="1114.99" y="-932.31" font-family="Helvetica,sans-Serif" font-size="32.00" fill="#29235c"> &#160;&#160;&#160;</text>
<text text-anchor="start" x="1150.06" y="-932.31" font-family="Helvetica,sans-Serif" font-style="italic" font-size="32.00" fill="#29235c">varchar(50)</text>
<text text-anchor="start" x="1313.62" y="-932.31" font-family="Helvetica,sans-Serif" font-size="32.00" fill="#29235c"> </text>
<text text-anchor="start" x="1322.51" y="-932.31" font-family="Helvetica,sans-Serif" font-weight="bold" font-size="32.00" fill="#29235c">(!)</text>
<polygon fill="#e7e2dd" stroke="transparent" points="1054.38,-851.11 1054.38,-911.11 1363.38,-911.11 1363.38,-851.11 1054.38,-851.11"/>
<polygon fill="none" stroke="#29235c" points="1054.38,-851.11 1054.38,-911.11 1363.38,-911.11 1363.38,-851.11 1054.38,-851.11"/>
<text text-anchor="start" x="1065.38" y="-872.31" font-family="Helvetica,sans-Serif" font-weight="bold" font-size="32.00" fill="#29235c">from_date</text>
<text text-anchor="start" x="1209.42" y="-872.31" font-family="Helvetica,sans-Serif" font-size="32.00" fill="#29235c"> &#160;&#160;&#160;</text>
<text text-anchor="start" x="1251.03" y="-872.31" font-family="Helvetica,sans-Serif" font-style="italic" font-size="32.00" fill="#29235c">date</text>
<text text-anchor="start" x="1313.29" y="-872.31" font-family="Helvetica,sans-Serif" font-size="32.00" fill="#29235c"> </text>
<text text-anchor="start" x="1322.18" y="-872.31" font-family="Helvetica,sans-Serif" font-weight="bold" font-size="32.00" fill="#29235c">(!)</text>
<polygon fill="#e7e2dd" stroke="transparent" points="1054.38,-791.11 1054.38,-851.11 1363.38,-851.11 1363.38,-791.11 1054.38,-791.11"/>
<polygon fill="none" stroke="#29235c" points="1054.38,-791.11 1054.38,-851.11 1363.38,-851.11 1363.38,-791.11 1054.38,-791.11"/>
<text text-anchor="start" x="1065.38" y="-811.31" font-family="Helvetica,sans-Serif" font-size="32.00" fill="#29235c">to_date &#160;&#160;&#160;</text>
<text text-anchor="start" x="1290.12" y="-812.31" font-family="Helvetica,sans-Serif" font-style="italic" font-size="32.00" fill="#29235c">date</text>
<polygon fill="none" stroke="#29235c" stroke-width="2" points="1052.88,-790.11 1052.88,-1092.11 1363.88,-1092.11 1363.88,-790.11 1052.88,-790.11"/>
</g>
<!-- employees&#45;&gt;titles -->
<!-- employees&#45;&gt;titles -->
<g id="edge12" class="edge">
<title>employees:e&#45;&gt;titles:w</title>
<path fill="none" stroke="#29235c" stroke-width="3" d="M686.34,-1001.11C845.97,-1001.11 888.45,-1001.11 1043.04,-1001.11"/>
<polygon fill="#29235c" stroke="#29235c" stroke-width="3" points="1043.38,-1004.61 1053.38,-1001.11 1043.38,-997.61 1043.38,-1004.61"/>
<text text-anchor="middle" x="1059.61" y="-972.31" font-family="Helvetica,sans-Serif" font-size="32.00" fill="#29235c">*</text>
<text text-anchor="middle" x="695.24" y="-1010.71" font-family="Helvetica,sans-Serif" font-size="32.00" fill="#29235c">1</text>
</g>
</g>
</svg>
